<svg xmlns="http://www.w3.org/2000/svg" viewBox="0 0 32 32"><path d="M256 174.6c-44.885 0-81.4 36.516-81.4 81.4 0 44.884 36.516 81.4 81.4 81.4 44.884 0 81.4-36.516 81.4-81.4 0-44.884-36.515-81.4-81.4-81.4z"/><path d="M416.668 0H95.334C42.767 0 0 42.766 0 95.333v321.334C0 469.234 42.767 512 95.334 512h321.334C469.234 512 512 469.234 512 416.667V95.333C512 42.766 469.234 0 416.668 0zM256 367.4c-61.427 0-111.4-49.975-111.4-111.4S194.573 144.6 256 144.6 367.4 194.574 367.4 256 317.427 367.4 256 367.4zm155.203-245.391a15.085 15.085 0 01-10.6 4.39c-3.95 0-7.82-1.6-10.61-4.39a15.111 15.111 0 01-4.39-10.61c0-3.949 1.6-7.811 4.39-10.6 2.79-2.801 6.66-4.4 10.61-4.4 3.94 0 7.811 1.6 10.6 4.4 2.801 2.789 4.4 6.65 4.4 10.6s-1.599 7.82-4.4 10.61z"/></svg>